<svg id="Calque_1" data-name="Calque 1" xmlns="http://www.w3.org/2000/svg" viewBox="0 0 211.58 211.58"><defs><style>.cls-1{fill:#fff;}.cls-2{fill:#09afea;}.cls-3{fill:#fc97fc;}.cls-4{fill:none;stroke:#000;stroke-linecap:round;stroke-linejoin:round;stroke-width:6px;}</style></defs><title>avatar_romeal</title><path class="cls-1" d="M105.82,203.54a97.29,97.29,0,1,1,97.29-97.29,97.4,97.4,0,0,1-97.29,97.29" transform="translate(-0.03 -0.47)"/><path class="cls-2" d="M105.82,17.47A88.79,88.79,0,1,1,17,106.25a88.79,88.79,0,0,1,88.79-88.79m0-17A105.79,105.79,0,1,0,211.6,106.25,105.91,105.91,0,0,0,105.82.47" transform="translate(-0.03 -0.47)"/><path d="M58.81,88a19.73,19.73,0,1,0-7.32-11L70.62,72.2Z" transform="translate(-0.03 -0.47)"/><path d="M142.06,88.76a19.73,19.73,0,1,0-7.32-11L153.88,73Z" transform="translate(-0.03 -0.47)"/><path class="cls-3" d="M57.14,126.73A16.83,16.83,0,1,1,40.31,109.9a16.83,16.83,0,0,1,16.83,16.83" transform="translate(-0.03 -0.47)"/><line class="cls-4" x1="40.29" y1="131.02" x2="34.87" y2="140.54"/><line class="cls-4" x1="49.84" y1="131.02" x2="44.43" y2="140.54"/><line class="cls-4" x1="59.4" y1="131.02" x2="53.98" y2="140.54"/><path class="cls-3" d="M189.14,126.73a16.83,16.83,0,1,1-16.83-16.83,16.83,16.83,0,0,1,16.83,16.83" transform="translate(-0.03 -0.47)"/><path d="M65.14,53.73c13.71,0,24.82,13.9,24.82,31s-11.11,31-24.82,31-24.82-13.9-24.82-31,11.11-31,24.82-31m0-6c-17,0-30.82,16.62-30.82,37s13.83,37,30.82,37S96,105.19,96,84.77s-13.83-37-30.82-37" transform="translate(-0.03 -0.47)"/><line class="cls-4" x1="43.61" y1="99.82" x2="86.61" y2="99.82"/><path class="cls-4" d="M87,137.69s17.53,18.71,37,0" transform="translate(-0.03 -0.47)"/><path d="M147.28,54.49c13.71,0,24.82,13.9,24.82,31s-11.11,31-24.82,31-24.82-13.9-24.82-31,11.11-31,24.82-31m0-6c-17,0-30.82,16.62-30.82,37s13.83,37,30.82,37,30.82-16.61,30.82-37-13.83-37-30.82-37" transform="translate(-0.03 -0.47)"/><line class="cls-4" x1="125.76" y1="100.57" x2="168.75" y2="100.57"/><line class="cls-4" x1="162.42" y1="126.26" x2="157.01" y2="135.78"/><line class="cls-4" x1="171.98" y1="126.26" x2="166.56" y2="135.78"/><line class="cls-4" x1="181.54" y1="126.26" x2="176.12" y2="135.78"/></svg>